<?xml version="1.0" encoding="utf-8"?>
<!-- Generator: Adobe Illustrator 19.2.1, SVG Export Plug-In . SVG Version: 6.00 Build 0)  -->
<svg version="1.1" id="Layer_1" xmlns="http://www.w3.org/2000/svg" xmlns:xlink="http://www.w3.org/1999/xlink" x="0px" y="0px"
	 viewBox="0 0 72 67" style="enable-background:new 0 0 72 67;" xml:space="preserve">
<style type="text/css">
	.st0{fill:#C9A63A;}
	.st1{fill:#656565;}
</style>
<g>
	<g>
		<path class="st0" d="M37.4,17.1c9.8,0,17.7,7.9,17.7,17.7s-7.9,17.7-17.7,17.7s-17.7-7.9-17.7-17.7S27.6,17.1,37.4,17.1
			 M37.4,12.7c-12.2,0-22.1,9.9-22.1,22.1S25.2,57,37.4,57s22.1-9.9,22.1-22.1S49.7,12.7,37.4,12.7L37.4,12.7z"/>
	</g>
	<g>
		<path class="st1" d="M28.9,32.4v-1.2c1.1-0.1,1.9-0.3,2.3-0.5c0.5-0.3,0.8-0.8,1-1.8h1.2v12.2h-1.6v-8.7H28.9z"/>
		<path class="st1" d="M42.1,41.1v-3h-5.4v-1.5l5.6-7.8h1.3v7.9h1.8v1.4h-1.8v3H42.1z M42.1,36.7v-5.6l-4,5.6H42.1z"/>
	</g>
</g>
</svg>
