<?xml version="1.0" encoding="utf-8"?>
<!-- Generator: Adobe Illustrator 19.2.1, SVG Export Plug-In . SVG Version: 6.00 Build 0)  -->
<svg version="1.1" id="Layer_1" xmlns="http://www.w3.org/2000/svg" xmlns:xlink="http://www.w3.org/1999/xlink" x="0px" y="0px"
	 viewBox="0 0 72 67" style="enable-background:new 0 0 72 67;" xml:space="preserve">
<style type="text/css">
	.st0{fill:#C9A63A;}
	.st1{fill:#656565;}
</style>
<g>
	<g>
		<path class="st0" d="M37.4,17.1c9.8,0,17.7,7.9,17.7,17.7s-7.9,17.7-17.7,17.7s-17.7-7.9-17.7-17.7C19.6,25.1,27.6,17.1,37.4,17.1
			 M37.4,12.7c-12.2,0-22.1,9.9-22.1,22.1S25.2,57,37.4,57s22.1-9.9,22.1-22.1C59.5,22.7,49.7,12.7,37.4,12.7L37.4,12.7z"/>
	</g>
	<g>
		<path class="st1" d="M29.9,32.1v-1.2c1.1-0.1,1.9-0.3,2.3-0.5c0.5-0.3,0.8-0.8,1-1.8h1.2v12h-1.6v-8.6H29.9z"/>
		<path class="st1" d="M38.8,33.6c-0.5-0.5-0.7-1-0.7-1.8c0-0.9,0.3-1.7,1-2.3c0.7-0.7,1.6-1,2.8-1c1.2,0,2.1,0.3,2.7,0.9
			c0.7,0.6,1,1.3,1,2.1c0,0.8-0.2,1.4-0.6,1.8c-0.2,0.3-0.5,0.5-1,0.8c0.5,0.3,0.9,0.5,1.2,0.8c0.5,0.6,0.8,1.3,0.8,2.2
			c0,1-0.3,2-1,2.7c-0.7,0.7-1.8,1.1-3.1,1.1c-1.2,0-2.1-0.3-3-1c-0.8-0.7-1.2-1.6-1.2-2.8c0-0.7,0.2-1.3,0.5-1.8
			c0.3-0.5,0.8-0.9,1.6-1.2C39.3,34.1,39,33.9,38.8,33.6z M43.7,39.1c0.5-0.4,0.7-1,0.7-1.7c0-0.8-0.3-1.4-0.7-1.8
			c-0.5-0.4-1.1-0.6-1.8-0.6c-0.7,0-1.3,0.2-1.8,0.7c-0.5,0.4-0.7,1-0.7,1.7c0,0.7,0.2,1.2,0.7,1.6c0.4,0.5,1,0.7,2,0.7
			C42.6,39.7,43.2,39.5,43.7,39.1z M43.4,33.1c0.4-0.4,0.6-0.8,0.6-1.4c0-0.5-0.2-0.8-0.5-1.2c-0.4-0.4-0.9-0.6-1.6-0.6
			c-0.7,0-1.2,0.2-1.6,0.6c-0.3,0.4-0.5,0.8-0.5,1.3c0,0.6,0.2,1,0.7,1.4c0.4,0.3,0.9,0.5,1.5,0.5C42.5,33.7,43,33.5,43.4,33.1z"/>
	</g>
</g>
</svg>
