<?xml version="1.0" encoding="utf-8"?>
<!-- Generator: Adobe Illustrator 19.2.1, SVG Export Plug-In . SVG Version: 6.00 Build 0)  -->
<svg version="1.1" id="Layer_1" xmlns="http://www.w3.org/2000/svg" xmlns:xlink="http://www.w3.org/1999/xlink" x="0px" y="0px"
	 viewBox="0 0 72 67" style="enable-background:new 0 0 72 67;" xml:space="preserve">
<style type="text/css">
	.st0{fill:#848484;}
	.st1{fill:#656565;}
</style>
<g>
	<path class="st0" d="M37.4,17.2c9.8,0,17.7,7.9,17.7,17.7s-7.9,17.7-17.7,17.7S19.7,44.8,19.7,35S27.6,17.2,37.4,17.2 M37.4,12.8
		c-12.2,0-22.1,9.9-22.1,22.1s9.9,22.2,22.1,22.2S59.5,47.2,59.5,35S49.7,12.8,37.4,12.8L37.4,12.8z"/>
	<g>
		<path class="st1" d="M33.5,41.4H32v-8.9h-3.2v-1.2c0.4,0,0.8,0,1.2-0.1c0.4-0.1,0.8-0.2,1.1-0.4c0.3-0.2,0.6-0.4,0.8-0.7
			c0.2-0.3,0.4-0.7,0.5-1.2h1.1V41.4z"/>
		<path class="st1" d="M37.7,30.8c0.2-0.4,0.5-0.7,0.8-1c0.3-0.3,0.7-0.5,1.2-0.6c0.4-0.1,0.9-0.2,1.4-0.2c0.7,0,1.3,0.1,1.7,0.3
			c0.5,0.2,0.9,0.4,1.2,0.7c0.3,0.3,0.5,0.6,0.7,1c0.1,0.4,0.2,0.8,0.2,1.2c0,0.6-0.2,1.1-0.5,1.5c-0.3,0.5-0.7,0.8-1.2,1
			c0.7,0.2,1.3,0.6,1.7,1.1c0.4,0.5,0.5,1.2,0.5,2c0,0.6-0.1,1.1-0.3,1.6s-0.5,0.9-0.9,1.2s-0.8,0.6-1.3,0.7c-0.5,0.2-1,0.3-1.6,0.3
			c-0.6,0-1.1-0.1-1.7-0.2c-0.5-0.2-1-0.4-1.3-0.7c-0.4-0.3-0.7-0.7-0.9-1.2s-0.3-1-0.3-1.7c0-0.7,0.2-1.4,0.6-1.9
			c0.4-0.5,0.9-0.9,1.6-1.2c-0.5-0.2-0.9-0.6-1.3-1c-0.3-0.5-0.5-1-0.5-1.5C37.5,31.6,37.5,31.2,37.7,30.8z M39.3,39.6
			c0.5,0.4,1.1,0.6,1.9,0.6c0.4,0,0.7-0.1,1-0.2c0.3-0.1,0.6-0.3,0.8-0.5c0.2-0.2,0.4-0.5,0.5-0.8c0.1-0.3,0.2-0.6,0.2-1
			c0-0.3-0.1-0.7-0.2-0.9c-0.1-0.3-0.3-0.5-0.6-0.7s-0.5-0.4-0.8-0.5c-0.3-0.1-0.6-0.2-1-0.2c-0.4,0-0.7,0.1-1,0.2
			c-0.3,0.1-0.6,0.3-0.8,0.5s-0.4,0.5-0.6,0.8c-0.1,0.3-0.2,0.6-0.2,1C38.6,38.6,38.8,39.2,39.3,39.6z M39.2,33.1
			c0.1,0.3,0.3,0.5,0.5,0.6c0.2,0.2,0.4,0.3,0.7,0.4s0.6,0.1,0.9,0.1c0.6,0,1.1-0.2,1.5-0.5c0.4-0.4,0.6-0.8,0.6-1.5
			c0-0.6-0.2-1.1-0.6-1.4c-0.4-0.3-0.9-0.5-1.5-0.5c-0.3,0-0.6,0-0.8,0.1c-0.3,0.1-0.5,0.2-0.7,0.4c-0.2,0.2-0.3,0.4-0.5,0.6
			c-0.1,0.2-0.2,0.5-0.2,0.8C39,32.5,39.1,32.8,39.2,33.1z"/>
	</g>
</g>
</svg>
