<?xml version="1.0" encoding="utf-8"?>
<!-- Generator: Adobe Illustrator 19.2.1, SVG Export Plug-In . SVG Version: 6.00 Build 0)  -->
<svg version="1.1" id="Layer_1" xmlns="http://www.w3.org/2000/svg" xmlns:xlink="http://www.w3.org/1999/xlink" x="0px" y="0px"
	 viewBox="0 0 72 67" style="enable-background:new 0 0 72 67;" xml:space="preserve">
<style type="text/css">
	.st0{fill:#848484;}
	.st1{fill:#656565;}
</style>
<g>
	<g>
		<path class="st0" d="M37.4,17.1c9.8,0,17.7,7.9,17.7,17.7s-7.9,17.7-17.7,17.7s-17.7-7.9-17.7-17.7C19.6,25.1,27.6,17.1,37.4,17.1
			 M37.4,12.7c-12.2,0-22.1,9.9-22.1,22.1S25.2,57,37.4,57s22.1-9.9,22.1-22.1C59.5,22.6,49.6,12.7,37.4,12.7L37.4,12.7z"/>
	</g>
	<g>
		<path class="st1" d="M28.6,28.5h5.7c1.1,0,2,0.3,2.7,1c0.7,0.7,1,1.5,1,2.7c0,1-0.3,1.8-0.9,2.5s-1.6,1.1-2.8,1.1h-3.9v5.3h-1.7
			L28.6,28.5L28.6,28.5z M35.3,30.2C34.9,30,34.4,30,33.7,30h-3.4v4.4h3.4c0.8,0,1.4-0.2,1.8-0.5c0.5-0.3,0.7-0.9,0.7-1.7
			C36.3,31.2,36,30.5,35.3,30.2z"/>
		<path class="st1" d="M48.7,28.5V30h-4.2v11.1h-1.8V30h-4.2v-1.5H48.7z"/>
	</g>
</g>
</svg>
